<mxfile host="app.diagrams.net" modified="2023-09-06T08:24:57.460Z" agent="Mozilla/5.0 (Windows NT 10.0; Win64; x64) AppleWebKit/537.36 (KHTML, like Gecko) Chrome/116.0.0.0 Safari/537.36" etag="CPMXSDLofmFIR2ciovq9" version="21.7.2" type="device">
  <diagram name="Page-1" id="5uVIUSUpDnrgN2x2tdj2">
    <mxGraphModel dx="724" dy="400" grid="1" gridSize="10" guides="1" tooltips="1" connect="1" arrows="1" fold="1" page="1" pageScale="1" pageWidth="850" pageHeight="1100" math="0" shadow="0">
      <root>
        <mxCell id="0" />
        <mxCell id="1" parent="0" />
        <mxCell id="_3mQkoEY0DeAA9KRBY36-2" style="edgeStyle=orthogonalEdgeStyle;rounded=0;orthogonalLoop=1;jettySize=auto;html=1;" edge="1" parent="1" source="_3mQkoEY0DeAA9KRBY36-1">
          <mxGeometry relative="1" as="geometry">
            <mxPoint x="410" y="200" as="targetPoint" />
          </mxGeometry>
        </mxCell>
        <mxCell id="_3mQkoEY0DeAA9KRBY36-1" value="&lt;font style=&quot;font-size: 13px;&quot;&gt;Mulai&lt;/font&gt;" style="strokeWidth=2;html=1;shape=mxgraph.flowchart.terminator;whiteSpace=wrap;fillColor=#d5e8d4;strokeColor=#82b366;" vertex="1" parent="1">
          <mxGeometry x="360" y="90" width="100" height="60" as="geometry" />
        </mxCell>
        <mxCell id="_3mQkoEY0DeAA9KRBY36-5" style="edgeStyle=orthogonalEdgeStyle;rounded=0;orthogonalLoop=1;jettySize=auto;html=1;" edge="1" parent="1" source="_3mQkoEY0DeAA9KRBY36-3">
          <mxGeometry relative="1" as="geometry">
            <mxPoint x="405" y="320" as="targetPoint" />
          </mxGeometry>
        </mxCell>
        <mxCell id="_3mQkoEY0DeAA9KRBY36-3" value="&lt;font style=&quot;font-size: 13px;&quot;&gt;&lt;b&gt;Input&amp;nbsp;&lt;/b&gt;gender user&lt;br&gt;&amp;nbsp;dan &lt;br&gt;warna mata&lt;/font&gt;" style="shape=parallelogram;html=1;strokeWidth=2;perimeter=parallelogramPerimeter;whiteSpace=wrap;rounded=1;arcSize=12;size=0.23;fillColor=#f8cecc;strokeColor=#b85450;" vertex="1" parent="1">
          <mxGeometry x="320" y="200" width="170" height="70" as="geometry" />
        </mxCell>
        <mxCell id="_3mQkoEY0DeAA9KRBY36-11" style="edgeStyle=orthogonalEdgeStyle;rounded=0;orthogonalLoop=1;jettySize=auto;html=1;entryX=0.5;entryY=0;entryDx=0;entryDy=0;entryPerimeter=0;" edge="1" parent="1" source="_3mQkoEY0DeAA9KRBY36-8" target="_3mQkoEY0DeAA9KRBY36-13">
          <mxGeometry relative="1" as="geometry">
            <mxPoint x="404.70000000000005" y="440" as="targetPoint" />
          </mxGeometry>
        </mxCell>
        <mxCell id="_3mQkoEY0DeAA9KRBY36-17" value="No" style="edgeLabel;html=1;align=center;verticalAlign=middle;resizable=0;points=[];" vertex="1" connectable="0" parent="_3mQkoEY0DeAA9KRBY36-11">
          <mxGeometry x="-0.0608" y="1" relative="1" as="geometry">
            <mxPoint as="offset" />
          </mxGeometry>
        </mxCell>
        <mxCell id="_3mQkoEY0DeAA9KRBY36-28" style="edgeStyle=orthogonalEdgeStyle;rounded=0;orthogonalLoop=1;jettySize=auto;html=1;" edge="1" parent="1" source="_3mQkoEY0DeAA9KRBY36-8" target="_3mQkoEY0DeAA9KRBY36-27">
          <mxGeometry relative="1" as="geometry" />
        </mxCell>
        <mxCell id="_3mQkoEY0DeAA9KRBY36-30" value="Yes" style="edgeLabel;html=1;align=center;verticalAlign=middle;resizable=0;points=[];" vertex="1" connectable="0" parent="_3mQkoEY0DeAA9KRBY36-28">
          <mxGeometry x="-0.8653" y="1" relative="1" as="geometry">
            <mxPoint x="-8" y="1" as="offset" />
          </mxGeometry>
        </mxCell>
        <mxCell id="_3mQkoEY0DeAA9KRBY36-8" value="&lt;font style=&quot;font-size: 13px;&quot;&gt;I = 0 sampai&lt;br&gt;&amp;nbsp;usersData.length&lt;/font&gt;" style="shape=hexagon;perimeter=hexagonPerimeter2;whiteSpace=wrap;html=1;fixedSize=1;fillColor=#e1d5e7;strokeColor=#9673a6;" vertex="1" parent="1">
          <mxGeometry x="319.40000000000003" y="319.9963565891471" width="170.6" height="80.46" as="geometry" />
        </mxCell>
        <mxCell id="_3mQkoEY0DeAA9KRBY36-10" value="Selesai" style="strokeWidth=2;html=1;shape=mxgraph.flowchart.terminator;whiteSpace=wrap;fillColor=#d5e8d4;strokeColor=#82b366;" vertex="1" parent="1">
          <mxGeometry x="360" y="850" width="100" height="60" as="geometry" />
        </mxCell>
        <mxCell id="_3mQkoEY0DeAA9KRBY36-14" style="edgeStyle=orthogonalEdgeStyle;rounded=0;orthogonalLoop=1;jettySize=auto;html=1;" edge="1" parent="1" source="_3mQkoEY0DeAA9KRBY36-13">
          <mxGeometry relative="1" as="geometry">
            <mxPoint x="405" y="640" as="targetPoint" />
          </mxGeometry>
        </mxCell>
        <mxCell id="_3mQkoEY0DeAA9KRBY36-19" value="Yes" style="edgeLabel;html=1;align=center;verticalAlign=middle;resizable=0;points=[];" vertex="1" connectable="0" parent="_3mQkoEY0DeAA9KRBY36-14">
          <mxGeometry x="-0.3863" y="-1" relative="1" as="geometry">
            <mxPoint as="offset" />
          </mxGeometry>
        </mxCell>
        <mxCell id="_3mQkoEY0DeAA9KRBY36-21" style="edgeStyle=elbowEdgeStyle;rounded=0;orthogonalLoop=1;jettySize=auto;html=1;exitX=0;exitY=0.5;exitDx=0;exitDy=0;exitPerimeter=0;entryX=0;entryY=0.5;entryDx=0;entryDy=0;" edge="1" parent="1" source="_3mQkoEY0DeAA9KRBY36-13" target="_3mQkoEY0DeAA9KRBY36-8">
          <mxGeometry relative="1" as="geometry">
            <mxPoint x="80" y="330" as="targetPoint" />
            <mxPoint x="281.09999999999997" y="525.0074074074074" as="sourcePoint" />
            <Array as="points">
              <mxPoint x="250" y="400" />
              <mxPoint x="240" y="410" />
            </Array>
          </mxGeometry>
        </mxCell>
        <mxCell id="_3mQkoEY0DeAA9KRBY36-23" value="No" style="edgeLabel;html=1;align=center;verticalAlign=middle;resizable=0;points=[];" vertex="1" connectable="0" parent="_3mQkoEY0DeAA9KRBY36-21">
          <mxGeometry x="-0.8767" relative="1" as="geometry">
            <mxPoint as="offset" />
          </mxGeometry>
        </mxCell>
        <mxCell id="_3mQkoEY0DeAA9KRBY36-13" value="&lt;font style=&quot;font-size: 14px;&quot;&gt;Gender user&lt;br&gt;&amp;nbsp;= &quot;Female&quot;?&lt;br&gt;ATAU&lt;br&gt;Warna mata =&lt;br&gt;&quot;brown&quot;?&lt;br&gt;&lt;/font&gt;" style="strokeWidth=2;html=1;shape=mxgraph.flowchart.decision;whiteSpace=wrap;fillColor=#dae8fc;strokeColor=#6c8ebf;" vertex="1" parent="1">
          <mxGeometry x="301.09999999999997" y="450" width="207.8" height="150" as="geometry" />
        </mxCell>
        <mxCell id="_3mQkoEY0DeAA9KRBY36-24" style="edgeStyle=orthogonalEdgeStyle;rounded=0;orthogonalLoop=1;jettySize=auto;html=1;" edge="1" parent="1" source="_3mQkoEY0DeAA9KRBY36-18">
          <mxGeometry relative="1" as="geometry">
            <mxPoint x="404" y="740" as="targetPoint" />
          </mxGeometry>
        </mxCell>
        <mxCell id="_3mQkoEY0DeAA9KRBY36-18" value="&lt;font style=&quot;font-size: 13px;&quot;&gt;&lt;b&gt;Input &lt;/b&gt;User ke &lt;br&gt;dalam array&lt;/font&gt;" style="shape=parallelogram;html=1;strokeWidth=2;perimeter=parallelogramPerimeter;whiteSpace=wrap;rounded=1;arcSize=12;size=0.23;fillColor=#f8cecc;strokeColor=#b85450;" vertex="1" parent="1">
          <mxGeometry x="319.4" y="640" width="170" height="70" as="geometry" />
        </mxCell>
        <mxCell id="_3mQkoEY0DeAA9KRBY36-26" style="edgeStyle=orthogonalEdgeStyle;rounded=0;orthogonalLoop=1;jettySize=auto;html=1;entryX=0;entryY=0.5;entryDx=0;entryDy=0;" edge="1" parent="1" source="_3mQkoEY0DeAA9KRBY36-25" target="_3mQkoEY0DeAA9KRBY36-8">
          <mxGeometry relative="1" as="geometry">
            <Array as="points">
              <mxPoint x="210" y="755" />
              <mxPoint x="210" y="360" />
            </Array>
          </mxGeometry>
        </mxCell>
        <mxCell id="_3mQkoEY0DeAA9KRBY36-25" value="" style="strokeWidth=2;html=1;shape=mxgraph.flowchart.start_2;whiteSpace=wrap;fillColor=#fff2cc;strokeColor=#d6b656;" vertex="1" parent="1">
          <mxGeometry x="389.4" y="740" width="30" height="30" as="geometry" />
        </mxCell>
        <mxCell id="_3mQkoEY0DeAA9KRBY36-29" style="edgeStyle=orthogonalEdgeStyle;rounded=0;orthogonalLoop=1;jettySize=auto;html=1;entryX=1;entryY=0.5;entryDx=0;entryDy=0;entryPerimeter=0;" edge="1" parent="1" source="_3mQkoEY0DeAA9KRBY36-27" target="_3mQkoEY0DeAA9KRBY36-10">
          <mxGeometry relative="1" as="geometry">
            <Array as="points">
              <mxPoint x="600" y="880" />
            </Array>
          </mxGeometry>
        </mxCell>
        <mxCell id="_3mQkoEY0DeAA9KRBY36-27" value="&lt;font style=&quot;font-size: 13px;&quot;&gt;&lt;b&gt;Output &lt;br&gt;&lt;/b&gt;Banyak user&lt;br&gt;&amp;nbsp;pada array&lt;/font&gt;" style="shape=parallelogram;html=1;strokeWidth=2;perimeter=parallelogramPerimeter;whiteSpace=wrap;rounded=1;arcSize=12;size=0.23;fillColor=#f8cecc;strokeColor=#b85450;" vertex="1" parent="1">
          <mxGeometry x="520" y="640" width="170" height="70" as="geometry" />
        </mxCell>
      </root>
    </mxGraphModel>
  </diagram>
</mxfile>
